<svg width="12" height="15" viewBox="0 0 12 15" fill="none" xmlns="http://www.w3.org/2000/svg">
<path d="M5.99983 4.006H5.99978C5.62635 4.006 5.26117 4.11301 4.95041 4.31367C4.63964 4.51434 4.39716 4.79975 4.2539 5.13399C4.11062 5.46825 4.07311 5.83616 4.14617 6.19113C4.21923 6.54609 4.39952 6.8719 4.66396 7.12745C4.92839 7.38299 5.26508 7.55683 5.63138 7.62724C5.99767 7.69765 6.37735 7.66153 6.72249 7.52337C7.06764 7.38521 7.36292 7.15113 7.5708 6.85048C7.77869 6.5498 7.88977 6.19612 7.88977 5.83415V5.83409C7.88919 5.34886 7.68946 4.88402 7.33498 4.54145C6.98055 4.19893 6.50036 4.00655 5.99983 4.006ZM5.99972 6.67323C5.8273 6.67322 5.65889 6.6238 5.51578 6.53139C5.37268 6.43899 5.26141 6.30782 5.19577 6.15469C5.13015 6.00158 5.113 5.83321 5.14643 5.67078C5.17987 5.50835 5.26244 5.3589 5.38399 5.24144C5.50556 5.12395 5.66065 5.04376 5.82973 5.01126C5.99883 4.97876 6.17408 4.99545 6.33326 5.05917C6.49243 5.12289 6.6282 5.23067 6.7236 5.36864C6.81897 5.50658 6.86976 5.66855 6.86977 5.83409C6.86951 6.05601 6.77818 6.26912 6.61525 6.42657C6.45227 6.58408 6.23093 6.67297 5.99972 6.67323Z" fill="currentColor" stroke="currentColor" stroke-width="0.1"/>
<path d="M1.76877 8.49719L1.76877 8.4972L5.24483 13.6542C5.3269 13.776 5.43899 13.8758 5.5708 13.9448C5.70261 14.0139 5.85005 14.05 5.99979 14.05C6.14952 14.05 6.29697 14.0139 6.42877 13.9448C6.56059 13.8758 6.67268 13.776 6.75474 13.6542L10.2309 8.4972C10.8634 7.55891 11.143 6.43881 11.0227 5.32467C10.9023 4.21055 10.3894 3.17057 9.57023 2.37893L9.53548 2.41489L9.57022 2.37893C8.68716 1.52576 7.50869 1.0192 6.26234 0.956584C5.016 0.893968 3.78962 1.2797 2.81988 2.03969C1.85011 2.79972 1.20565 3.88028 1.01144 5.07304C0.817225 6.26582 1.08713 7.48571 1.76877 8.49719ZM9.37715 7.95601L5.9998 12.9664L2.62242 7.95601C1.58963 6.4238 1.81092 4.37305 3.14939 3.0795C3.52355 2.7179 3.96785 2.43098 4.45694 2.23519C4.94604 2.0394 5.47031 1.93861 5.9998 1.93861C6.52929 1.93861 7.05356 2.0394 7.54266 2.23519C8.03175 2.43098 8.47605 2.7179 8.85021 3.0795C10.1887 4.37305 10.4099 6.4238 9.37715 7.95601Z" fill="currentColor" stroke="currentColor" stroke-width="0.1"/>
</svg>
